<?xml version="1.0" encoding="utf-8"?>
<!-- Generator: Adobe Illustrator 24.0.3, SVG Export Plug-In . SVG Version: 6.00 Build 0)  -->
<svg version="1.1" id="Capa_1" xmlns="http://www.w3.org/2000/svg" xmlns:xlink="http://www.w3.org/1999/xlink" x="0px" y="0px"
	 viewBox="0 0 622.6 484.5" style="enable-background:new 0 0 622.6 484.5;" xml:space="preserve">
<style type="text/css">
	.st0{fill:#B91738;}
	.st1{fill:#CD142C;}
	.st2{fill:#FFFFFF;}
	.st3{fill:#686869;}
	.st4{clip-path:url(#SVGID_2_);}
	.st5{fill:#F32735;}
	.st6{fill:#FFAB4D;}
	.st7{fill:#8F4899;}
	.st8{fill:#E9E9E9;}
	.st9{fill:#E62735;}
	.st10{fill:#F8AE42;}
	.st11{fill:#8E4191;}
</style>
<g>
	<g>
		<path class="st0" d="M63.6,35.4"/>
		<path class="st0" d="M105.9,408.2"/>
		<g>
			<path class="st1" d="M617.5,66.8c0-37.4-32-67.1-69.9-64.8l-484,33.4c-38.7,2.3-66.9,37-61,74.8l38.3,243c5,31.6,32.6,55,65,55
				c0,0,431.8,40.6,438.7,43.4l76,30.2l-2.7-73.5C617.7,402.1,617.5,66.8,617.5,66.8z"/>
			<path class="st2" d="M622.6,484.5l-78.7-31.2c-7.6-2.3-289.8-29.3-438.1-43.3c-16.1,0-31.7-5.7-43.9-16.1
				c-12.3-10.4-20.4-24.7-22.8-40.5l-38.3-243c-2.9-18.6,2-37,13.8-51.7c11.9-14.8,29.7-24,48.9-25.2l484-33.4
				c18.8-1.1,37.3,5.5,50.9,18.3c13.5,12.7,21,29.9,21,48.3v0c0,3.4,0.2,335.4,0.5,341.4L622.6,484.5z M551.8,3.7
				c-1.4,0-2.7,0-4.1,0.1l-484,33.4C45.6,38.3,28.8,47,17.5,61C6.3,75,1.7,92.3,4.5,109.9l38.3,243c2.3,14.9,10,28.4,21.6,38.2
				c11.6,9.8,26.4,15.2,41.6,15.2l0.2,0c44.2,4.2,432.3,40.7,439.2,43.5l73.4,29.1l-2.6-70.7c-0.2-6.1-0.5-327.8-0.5-341.5v0
				c0-17.4-7-33.6-19.8-45.6C583.8,9.8,568.3,3.7,551.8,3.7z"/>
		</g>
		<g id="XMLID_5_">
			<g>
				<path class="st2" d="M106.4,229.8c0-18.7,14-31.9,33.2-31.9c19.4,0,33.3,13.2,33.3,31.9c0,18.7-13.9,32-33.3,32
					C120.5,261.8,106.4,248.5,106.4,229.8z M158.2,229.8c0-11.9-7.9-19.5-18.6-19.5c-10.5,0-18.5,7.6-18.5,19.5s7.9,19.5,18.5,19.5
					C150.2,249.3,158.2,241.7,158.2,229.8z"/>
				<path class="st2" d="M268,225.3V261h-14.6v-33.9c0-11.1-5.5-16.5-14.8-16.5c-10.4,0-17.4,6.3-17.4,18.8V261h-14.6v-62.4h13.9
					v8.1c4.8-5.7,12.4-8.8,21.5-8.8C256.9,197.9,268,206.5,268,225.3z"/>
				<path class="st2" d="M340.6,198.6V261h-13.9v-7.9c-4.7,5.7-12,8.8-20.1,8.8c-16,0-26.9-8.8-26.9-27.6v-35.6h14.6v33.6
					c0,11.3,5.4,16.7,14.6,16.7c10.2,0,17.1-6.3,17.1-18.8v-31.5H340.6z"/>
				<path class="st2" d="M414.9,225.3V261h-14.6v-33.9c0-11.1-5.5-16.5-14.8-16.5c-10.4,0-17.4,6.3-17.4,18.8V261h-14.6v-62.4h13.9
					v8.1c4.8-5.7,12.4-8.8,21.5-8.8C403.8,197.9,414.9,206.5,414.9,225.3z"/>
				<path class="st2" d="M422,229.8c0-18.7,14-31.9,33.8-31.9c12.1,0,21.8,5,26.6,14.5l-11.2,6.5c-3.7-6-9.3-8.6-15.5-8.6
					c-10.7,0-18.9,7.5-18.9,19.5c0,12.1,8.2,19.5,18.9,19.5c6.2,0,11.8-2.7,15.5-8.6l11.2,6.5c-4.8,9.3-14.5,14.6-26.6,14.6
					C436,261.8,422,248.5,422,229.8z"/>
				<path class="st2" d="M540.9,224.5V261h-13.8v-7.6c-3.5,5.4-10.3,8.4-19.6,8.4c-14.2,0-23.2-7.8-23.2-18.7
					c0-10.4,7-18.6,25.9-18.6h16.1v-0.9c0-8.5-5.1-13.5-15.5-13.5c-7,0-14.2,2.3-18.9,6.2l-5.7-10.6c6.7-5.1,16.4-7.7,26.4-7.7
					C530.5,197.9,540.9,206.5,540.9,224.5z M526.3,241.5v-7.2h-15.1c-9.9,0-12.6,3.7-12.6,8.3c0,5.3,4.4,8.6,11.9,8.6
					C517.7,251.2,523.8,247.9,526.3,241.5z"/>
			</g>
			<g>
				<path class="st2" d="M172,124.4v52.9H152v-11c-5.1,7.8-14.9,12.2-28.4,12.2c-20.6,0-33.6-11.3-33.6-27c0-15,10.1-26.9,37.5-26.9
					h23.3v-1.4c0-12.3-7.4-19.6-22.5-19.6c-10.1,0-20.6,3.4-27.4,9l-8.3-15.4c9.6-7.4,23.7-11.2,38.2-11.2
					C156.9,86,172,98.3,172,124.4z M150.8,149v-10.5H129c-14.4,0-18.2,5.4-18.2,12c0,7.6,6.4,12.5,17.2,12.5
					C138.3,163.1,147.3,158.3,150.8,149z"/>
				<path class="st2" d="M280.9,125.5v51.7h-21.1v-49c0-16.1-7.9-23.8-21.5-23.8c-15,0-25.2,9.1-25.2,27.2v45.6h-21.1V51.9h21.1
					v45.6c6.9-7.4,17.6-11.5,30.1-11.5C264.9,86,280.9,98.3,280.9,125.5z"/>
				<path class="st2" d="M293.4,132.1c0-27,20.3-46.1,48-46.1c28,0,48.2,19.1,48.2,46.1s-20.1,46.3-48.2,46.3
					C313.7,178.4,293.4,159.2,293.4,132.1z M368.3,132.1c0-17.2-11.5-28.2-26.9-28.2c-15.2,0-26.7,11-26.7,28.2
					c0,17.2,11.5,28.2,26.7,28.2C356.8,160.4,368.3,149.4,368.3,132.1z"/>
				<path class="st2" d="M455.1,86v20.1c-1.9-0.3-3.4-0.5-4.9-0.5c-16.1,0-26.2,9.5-26.2,27.9v43.8h-21.1V87H423v13.2
					C429.1,90.7,440.1,86,455.1,86z"/>
				<path class="st2" d="M542.5,124.4v52.9h-19.9v-11c-5.1,7.8-14.9,12.2-28.4,12.2c-20.6,0-33.6-11.3-33.6-27
					c0-15,10.1-26.9,37.5-26.9h23.3v-1.4c0-12.3-7.4-19.6-22.5-19.6c-10.1,0-20.6,3.4-27.4,9l-8.3-15.4c9.6-7.4,23.7-11.2,38.2-11.2
					C527.5,86,542.5,98.3,542.5,124.4z M521.4,149v-10.5h-21.8c-14.4,0-18.2,5.4-18.2,12c0,7.6,6.4,12.5,17.2,12.5
					C508.9,163.1,517.8,158.3,521.4,149z"/>
			</g>
			<g>
				<path class="st2" d="M142.1,312.3v2.7h-9.7v4.8h8.7v2.7h-8.7v4.9h10v2.7h-13v-17.8H142.1z"/>
				<path class="st2" d="M148,312.3l4.4,6.2l4.4-6.2h3.5l-6,8.6l6.5,9.3h-3.6l-4.8-6.7l-4.8,6.7h-3.5l6.5-9.1l-6-8.7H148z"/>
				<path class="st2" d="M171.6,314.9c-3.6,0-6.4,2.8-6.4,6.3c0,3.5,2.8,6.3,6.4,6.3c1.8,0,3.6-0.8,5-2.1l1.8,2
					c-1.8,1.8-4.4,2.9-6.9,2.9c-5.2,0-9.3-3.9-9.3-9.1c0-5.1,4.1-9,9.4-9c2.5,0,5,1,6.8,2.8l-1.8,2.2
					C175.3,315.8,173.4,314.9,171.6,314.9z"/>
				<path class="st2" d="M184.4,312.3v15.1h7.7v2.7h-10.7v-17.8H184.4z"/>
				<path class="st2" d="M202.5,327.6c2.9,0,4.7-1.8,4.7-4.8v-10.4h3v10.4c0,4.7-2.9,7.5-7.7,7.5c-4.8,0-7.8-2.9-7.8-7.5v-10.4h3
					v10.4C197.7,325.8,199.5,327.6,202.5,327.6z"/>
				<path class="st2" d="M220.1,315c-1.8,0-2.9,0.7-2.9,1.9c0,3.9,9.6,1.8,9.6,8.2c0,3.2-2.8,5.1-6.7,5.1c-2.8,0-5.5-1.1-7.3-2.8
					l1.3-2.6c1.8,1.7,4.1,2.6,6,2.6c2.1,0,3.3-0.8,3.3-2.2c0-4-9.6-1.8-9.6-8.1c0-3.1,2.6-5,6.5-5c2.3,0,4.6,0.7,6.2,1.8l-1.2,2.6
					C223.4,315.5,221.5,315,220.1,315z"/>
				<path class="st2" d="M233.3,312.3v17.8h-3v-17.8H233.3z"/>
				<path class="st2" d="M239,312.3l5.5,14.5l5.6-14.5h3.1l-7.2,17.8h-3.1l-7.1-17.8H239z"/>
				<path class="st2" d="M273,321.2c0,5.1-4.1,9-9.4,9c-5.3,0-9.4-3.9-9.4-9c0-5.1,4.1-9,9.4-9C268.9,312.3,273,316.2,273,321.2z
					 M257.2,321.2c0,3.5,2.9,6.3,6.4,6.3c3.5,0,6.3-2.8,6.3-6.3s-2.9-6.3-6.3-6.3C260.1,315,257.2,317.7,257.2,321.2z"/>
				<path class="st2" d="M291.8,314.9c-3.6,0-6.4,2.8-6.4,6.3c0,3.5,2.8,6.3,6.4,6.3c1.8,0,3.6-0.8,5-2.1l1.8,2
					c-1.8,1.8-4.4,2.9-6.9,2.9c-5.2,0-9.3-3.9-9.3-9.1c0-5.1,4.1-9,9.4-9c2.5,0,5,1,6.8,2.8l-1.8,2.2
					C295.5,315.8,293.6,314.9,291.8,314.9z"/>
				<path class="st2" d="M319,321.2c0,5.1-4.1,9-9.4,9s-9.4-3.9-9.4-9c0-5.1,4.1-9,9.4-9S319,316.2,319,321.2z M303.2,321.2
					c0,3.5,2.9,6.3,6.4,6.3c3.5,0,6.3-2.8,6.3-6.3s-2.9-6.3-6.3-6.3C306.1,315,303.2,317.7,303.2,321.2z"/>
				<path class="st2" d="M325.2,312.3l9.6,12.8v-12.8h3v17.8h-3l-9.5-12.8v12.8h-3v-17.8H325.2z"/>
				<path class="st2" d="M141.5,345.1v2.7h-5.7v15.1h-3v-15.1h-5.6v-2.7H141.5z"/>
				<path class="st2" d="M155.6,358.9h-9l-1.7,4h-3.1l7.9-17.8h3.1l7.8,17.8h-3.2L155.6,358.9z M154.4,356.2l-3.4-7.9l-3.4,7.9
					H154.4z"/>
				<path class="st2" d="M174.2,362.9l-3.3-5.4c-0.3,0-0.5,0-0.8,0h-4.2v5.4h-3v-17.8h7.2c4.6,0,7.2,2.2,7.2,6.1
					c0,2.9-1.3,4.9-3.7,5.8l4,6H174.2z M170.1,354.8c2.8,0,4.3-1.2,4.3-3.6c0-2.3-1.6-3.5-4.3-3.5h-4.2v7.1H170.1z"/>
				<path class="st2" d="M184.1,363c-2.1,0-3.9-0.9-5.2-2.6l1.4-2.3c1.2,1.3,2.6,2,3.8,2c1.6,0,2.5-1,2.5-2.8v-9.5h-6.2v-2.7h9.2
					v12.3C189.7,361,187.6,363,184.1,363z"/>
				<path class="st2" d="M206.7,345.1v2.7H197v4.8h8.7v2.7H197v4.9h10v2.7h-13v-17.8H206.7z"/>
				<path class="st2" d="M222.9,345.1v2.7h-5.7v15.1h-3v-15.1h-5.6v-2.7H222.9z"/>
				<path class="st2" d="M237,358.9h-9l-1.7,4h-3.1l7.9-17.8h3.1l7.8,17.8h-3.2L237,358.9z M235.8,356.2l-3.4-7.9l-3.4,7.9H235.8z"
					/>
				<path class="st2" d="M263.2,362.9l-3.3-5.4c-0.3,0-0.5,0-0.8,0h-4.2v5.4h-3v-17.8h7.2c4.6,0,7.2,2.2,7.2,6.1
					c0,2.9-1.3,4.9-3.7,5.8l4,6H263.2z M259.1,354.8c2.8,0,4.3-1.2,4.3-3.6c0-2.3-1.6-3.5-4.3-3.5h-4.2v7.1H259.1z"/>
				<path class="st2" d="M273.3,345.1v17.8h-3v-17.8H273.3z"/>
				<path class="st2" d="M292.2,351.2c0,4-2.6,6.4-7.1,6.4H281v5.4h-3v-17.8h7.1C289.6,345.1,292.2,347.3,292.2,351.2z M289.3,351.3
					c0-2.3-1.6-3.5-4.3-3.5h-4v7.1h4C287.7,354.8,289.3,353.7,289.3,351.3z"/>
				<path class="st2" d="M298.2,345.1v15.1h7.7v2.7h-10.7v-17.8H298.2z"/>
				<path class="st2" d="M321.5,345.1v2.7h-9.7v4.8h8.7v2.7h-8.7v4.9h10v2.7h-13v-17.8H321.5z"/>
				<path class="st2" d="M332.8,357v5.9h-3v-5.8l-6.6-12h3l5.1,8.7l5-8.7h3.1L332.8,357z"/>
			</g>
			<g>
				<path class="st3" d="M536.6,397.7H373.9c-3.2,0-5.7-2.6-5.7-5.8v-96c0-3.2,2.6-5.8,5.7-5.8h162.8c3.2,0,5.7,2.6,5.7,5.8v96
					C542.3,395.1,539.8,397.7,536.6,397.7"/>
				<g>
					<defs>
						<path id="SVGID_1_" d="M535.5,397.7H372.8c-3.2,0-5.7-2.6-5.7-5.8v-96c0-3.2,2.6-5.8,5.7-5.8h162.8c3.2,0,5.7,2.6,5.7,5.8v96
							C541.2,395.1,538.7,397.7,535.5,397.7"/>
					</defs>
					<clipPath id="SVGID_2_">
						<use xlink:href="#SVGID_1_"  style="overflow:visible;"/>
					</clipPath>
					<g class="st4">
						<polygon class="st5" points="541.2,332.9 541.2,322.2 541.2,311.4 541.2,300.6 541.2,289.9 534.8,289.9 534.8,300.6 
							534.8,311.4 534.8,322.2 534.8,332.9 534.8,343.7 541.2,343.7 						"/>
						<polygon class="st6" points="541.2,354.5 541.2,343.7 534.8,343.7 534.8,354.5 534.8,359.9 541.2,359.9 						"/>
						<polygon class="st7" points="541.2,386.8 541.2,376 541.2,365.3 541.2,359.9 534.8,359.9 534.8,365.3 534.8,376 534.8,386.8 
							534.8,397.6 541.2,397.6 						"/>
					</g>
				</g>
				<path class="st8" d="M452.4,388.8c0-0.6-0.7-0.8-0.7-0.8c-7.3-1.3-14-6.4-19.1-11.7c-8.3-8.7-15.4-19.9-18.1-25.1
					c-0.8-1.9,0.3-2.1,0.3-2.1v0c14.1-5.4,16.4-19.5,16.4-23.4c0-17.8-16.9-23.1-32.1-23.1c-5.7,0-7.7,0.5-13.6,0.5
					c-7,0-11.1-0.5-12.2-0.5c-0.9,0-1.6,0.8-1.6,1.8c0,4.3,9.8-3,9.8,11.4v57.4c0,13.3-9.3,9.6-9.3,12.8c0,1.1,1.2,1.4,1.9,1.4
					c3.5,0,7.4-0.5,13-0.5c7.1,0,8.9,0.5,12.9,0.5c3,0,3.5-0.6,3.5-1.4c0-4.1-12.6,2.2-12.6-15.1v-60.5c0-3.6,2.6-3.6,6.4-3.6
					c13.8,0,24.7,7.6,24.9,22.2c0.2,9.8-7.2,19.1-19.4,19.1c-4.3,0-3.3-0.2-4.3-0.2c-0.6,0-1.2,0.2-1.2,1c0,1.1,0.9,1.7,1.9,2
					c1.3,0.6,4.4,1.1,7.6,6c8.2,13.4,17.3,33.4,38.3,33.4C453.2,390.5,452.4,389.5,452.4,388.8"/>
				<g>
					<g>
						<path class="st2" d="M457,336.5c0.1,0,0.3-0.1,0.4-0.1c0.1,0,0.2,0,0.4-0.1c0.1,0,0.3,0,0.4,0c0.5,0,1,0.1,1.5,0.3
							c0.4,0.2,0.8,0.4,1.2,0.8c0.3,0.3,0.6,0.7,0.8,1.1c0.2,0.4,0.3,0.9,0.3,1.4c0,0.5-0.1,1-0.3,1.4c-0.2,0.4-0.4,0.8-0.8,1.1
							c-0.3,0.3-0.7,0.6-1.2,0.8c-0.4,0.2-0.9,0.3-1.5,0.3c-0.4,0-0.7,0-1-0.1c-0.3-0.1-0.6-0.1-0.9-0.2c-0.3-0.1-0.6-0.2-0.9-0.3
							V334c0,0,0-0.1,0.1-0.1h1.5c0,0,0.1,0,0.1,0.1V336.5z M458.2,342.1c0.3,0,0.6-0.1,0.8-0.2c0.2-0.1,0.5-0.2,0.6-0.4
							c0.2-0.2,0.3-0.4,0.4-0.7c0.1-0.3,0.1-0.6,0.1-0.9c0-0.3,0-0.6-0.1-0.9c-0.1-0.3-0.2-0.5-0.4-0.7c-0.2-0.2-0.4-0.3-0.6-0.4
							c-0.2-0.1-0.5-0.2-0.8-0.2c-0.1,0-0.3,0-0.4,0c-0.1,0-0.3,0-0.4,0.1c-0.1,0-0.3,0.1-0.4,0.1v3.9c0.1,0,0.3,0.1,0.4,0.1
							c0.1,0,0.2,0.1,0.4,0.1C457.9,342,458.1,342.1,458.2,342.1"/>
						<path class="st2" d="M482.6,342.7C482.6,342.7,482.6,342.8,482.6,342.7c-0.2,0.2-0.4,0.3-0.6,0.4c-0.2,0.1-0.5,0.2-0.7,0.3
							c-0.3,0.1-0.6,0.1-0.9,0.1c-0.5,0-1-0.1-1.5-0.3c-0.4-0.2-0.8-0.4-1.2-0.8c-0.3-0.3-0.6-0.7-0.8-1.1c-0.2-0.4-0.3-0.9-0.3-1.4
							c0-0.5,0.1-1,0.3-1.4c0.2-0.4,0.4-0.8,0.8-1.1c0.3-0.3,0.7-0.6,1.2-0.8c0.4-0.2,0.9-0.3,1.5-0.3c0.3,0,0.6,0,0.9,0.1
							c0.3,0.1,0.5,0.2,0.7,0.2c0.2,0.1,0.4,0.2,0.6,0.3c0,0,0,0.1,0,0.1l-0.6,1.1c0,0-0.1,0-0.1,0c-0.1-0.1-0.2-0.1-0.4-0.2
							c-0.1-0.1-0.3-0.1-0.5-0.2c-0.2,0-0.4-0.1-0.6-0.1c-0.3,0-0.6,0.1-0.8,0.2c-0.3,0.1-0.5,0.3-0.7,0.5c-0.2,0.2-0.3,0.4-0.4,0.7
							c-0.1,0.3-0.2,0.5-0.2,0.8c0,0.3,0.1,0.6,0.2,0.8c0.1,0.3,0.3,0.5,0.4,0.7c0.2,0.2,0.4,0.4,0.7,0.5c0.3,0.1,0.5,0.2,0.8,0.2
							c0.2,0,0.5,0,0.6-0.1c0.2-0.1,0.4-0.1,0.5-0.2c0.1-0.1,0.3-0.1,0.4-0.2c0,0,0.1,0,0.1,0L482.6,342.7z"/>
						<path class="st2" d="M482.7,340c0-0.5,0.1-1,0.3-1.4c0.2-0.4,0.4-0.8,0.7-1.1c0.3-0.3,0.7-0.6,1.1-0.8
							c0.4-0.2,0.9-0.3,1.4-0.3c0.5,0,1,0.1,1.4,0.3c0.4,0.2,0.8,0.4,1.1,0.8c0.3,0.3,0.6,0.7,0.7,1.1c0.2,0.4,0.3,0.9,0.3,1.4
							c0,0.5-0.1,1-0.3,1.4c-0.2,0.4-0.4,0.8-0.7,1.1c-0.3,0.3-0.7,0.6-1.1,0.8c-0.4,0.2-0.9,0.3-1.4,0.3c-0.5,0-1-0.1-1.4-0.3
							c-0.4-0.2-0.8-0.4-1.1-0.8c-0.3-0.3-0.6-0.7-0.7-1.1C482.8,340.9,482.7,340.5,482.7,340 M488,340c0-0.3,0-0.6-0.1-0.9
							c-0.1-0.3-0.2-0.5-0.4-0.7c-0.2-0.2-0.4-0.3-0.6-0.4c-0.2-0.1-0.5-0.2-0.7-0.2c-0.2,0-0.5,0.1-0.7,0.2
							c-0.2,0.1-0.4,0.2-0.6,0.4c-0.2,0.2-0.3,0.4-0.4,0.7c-0.1,0.3-0.1,0.6-0.1,0.9c0,0.3,0,0.6,0.1,0.9c0.1,0.3,0.2,0.5,0.4,0.7
							c0.2,0.2,0.4,0.3,0.6,0.4c0.2,0.1,0.5,0.2,0.7,0.2c0.2,0,0.5-0.1,0.7-0.2c0.2-0.1,0.4-0.2,0.6-0.4c0.2-0.2,0.3-0.4,0.4-0.7
							C487.9,340.6,488,340.3,488,340"/>
						<path class="st2" d="M496.3,337.8c-0.1,0-0.3,0-0.4,0c-0.1,0-0.2,0.1-0.3,0.1c-0.1,0-0.2,0.1-0.3,0.2v5.1c0,0,0,0.1-0.1,0.1
							h-1.5c0,0-0.1,0-0.1-0.1V337c0.2-0.1,0.5-0.2,0.8-0.3c0.2-0.1,0.5-0.1,0.8-0.2c0.3-0.1,0.6-0.1,1-0.1c0.3,0,0.6,0,0.8,0.1
							c0.3,0.1,0.5,0.1,0.7,0.2c0.2,0.1,0.4,0.2,0.6,0.2c0,0,0,0,0,0.1l-0.4,1.3c0,0-0.1,0.1-0.1,0c-0.1-0.1-0.2-0.1-0.4-0.2
							c-0.1-0.1-0.3-0.1-0.5-0.2C496.7,337.9,496.5,337.8,496.3,337.8"/>
						<path class="st2" d="M498.9,334.7c0-0.3,0.1-0.5,0.3-0.7c0.2-0.2,0.4-0.3,0.7-0.3c0.3,0,0.5,0.1,0.7,0.3
							c0.2,0.2,0.3,0.4,0.3,0.7c0,0.3-0.1,0.5-0.3,0.7c-0.2,0.2-0.4,0.3-0.7,0.3c-0.3,0-0.5-0.1-0.7-0.3
							C498.9,335.2,498.9,335,498.9,334.7 M499.1,336.6h1.5c0,0,0.1,0,0.1,0.1v6.5c0,0,0,0.1-0.1,0.1h-1.5c0,0-0.1,0-0.1-0.1
							L499.1,336.6C499,336.7,499.1,336.6,499.1,336.6"/>
						<path class="st2" d="M503.6,345.8h-1.5c0,0-0.1,0-0.1-0.1V337c0,0,0,0,0-0.1c0.3-0.1,0.5-0.2,0.8-0.3c0.3-0.1,0.6-0.1,0.9-0.2
							c0.3-0.1,0.7-0.1,1-0.1c0.5,0,1,0.1,1.5,0.3c0.4,0.2,0.8,0.4,1.2,0.8c0.3,0.3,0.6,0.7,0.8,1.1c0.2,0.4,0.3,0.9,0.3,1.4
							c0,0.5-0.1,1-0.3,1.4c-0.2,0.4-0.4,0.8-0.8,1.1c-0.3,0.3-0.7,0.6-1.2,0.8c-0.4,0.2-0.9,0.3-1.5,0.3c-0.1,0-0.3,0-0.4,0
							c-0.1,0-0.3,0-0.4-0.1c-0.1,0-0.3-0.1-0.4-0.1L503.6,345.8C503.7,345.7,503.7,345.8,503.6,345.8 M504.9,337.8
							c-0.1,0-0.3,0-0.4,0c-0.1,0-0.3,0-0.4,0.1c-0.1,0-0.3,0.1-0.4,0.1v3.9c0.1,0,0.3,0.1,0.4,0.1c0.1,0,0.2,0.1,0.4,0.1
							c0.1,0,0.3,0,0.4,0c0.3,0,0.6-0.1,0.8-0.2c0.2-0.1,0.5-0.2,0.6-0.4c0.2-0.2,0.3-0.4,0.4-0.7c0.1-0.3,0.1-0.6,0.1-0.9
							c0-0.3,0-0.6-0.1-0.9c-0.1-0.3-0.2-0.5-0.4-0.7c-0.2-0.2-0.4-0.3-0.6-0.4C505.4,337.8,505.2,337.8,504.9,337.8"/>
						<path class="st2" d="M509.8,343.3C509.7,343.3,509.7,343.3,509.8,343.3l-0.1-7.9l0-1.3c0,0,0-0.1,0.1-0.1h1.5
							c0,0,0.1,0,0.1,0.1v9.2c0,0,0,0.1-0.1,0.1H509.8z"/>
						<line class="st2" x1="511.3" y1="343.3" x2="509.8" y2="343.3"/>
						<path class="st2" d="M518.1,340.7h-4c0.1,0.4,0.4,0.7,0.7,0.9c0.3,0.3,0.8,0.4,1.3,0.4c0.3,0,0.5,0,0.7-0.1
							c0.2-0.1,0.4-0.1,0.5-0.2c0.1-0.1,0.3-0.1,0.4-0.2c0,0,0.1,0,0.1,0l0.6,1.1c0,0,0,0.1,0,0.1c-0.2,0.1-0.4,0.3-0.6,0.4
							c-0.2,0.1-0.5,0.2-0.8,0.3c-0.3,0.1-0.6,0.1-1,0.1c-0.5,0-1-0.1-1.5-0.3c-0.4-0.2-0.8-0.4-1.1-0.8c-0.3-0.3-0.6-0.7-0.7-1.1
							c-0.2-0.4-0.3-0.9-0.3-1.4c0-0.5,0.1-1,0.2-1.5c0.2-0.4,0.4-0.8,0.7-1.1c0.3-0.3,0.6-0.6,1-0.7c0.4-0.2,0.8-0.3,1.3-0.3
							s0.9,0.1,1.3,0.3c0.4,0.2,0.8,0.4,1,0.7c0.3,0.3,0.5,0.7,0.7,1.1c0.2,0.4,0.2,0.9,0.2,1.4c0,0,0,0,0,0L518.1,340.7
							C518.2,340.7,518.1,340.7,518.1,340.7 M517.2,339.3c-0.1-0.4-0.2-0.8-0.5-1.1c-0.3-0.3-0.6-0.4-1-0.4c-0.4,0-0.8,0.1-1,0.4
							c-0.3,0.3-0.5,0.7-0.5,1.1H517.2z"/>
						<path class="st2" d="M526.2,342.7c0,0.4-0.1,0.8-0.2,1.1c-0.2,0.4-0.4,0.7-0.7,1c-0.3,0.3-0.7,0.5-1.1,0.7
							c-0.4,0.2-0.9,0.3-1.5,0.3c-0.4,0-0.7,0-1-0.1c-0.3-0.1-0.6-0.2-0.8-0.3c-0.2-0.1-0.5-0.2-0.7-0.4l0.6-1.1c0,0,0,0,0.1,0
							c0.1,0.1,0.3,0.2,0.5,0.2c0.2,0.1,0.4,0.1,0.6,0.2c0.2,0.1,0.5,0.1,0.7,0.1c0.4,0,0.8-0.1,1-0.2c0.3-0.2,0.4-0.3,0.6-0.5
							c0.2-0.2,0.3-0.5,0.3-0.7v-0.1c-0.1,0-0.3,0-0.4,0.1c-0.1,0-0.3,0-0.4,0c-0.2,0-0.3,0-0.5,0c-0.5,0-1-0.1-1.4-0.2
							c-0.4-0.2-0.8-0.4-1-0.6c-0.3-0.3-0.5-0.6-0.6-0.9c-0.1-0.4-0.2-0.8-0.2-1.2v-3.5c0,0,0-0.1,0.1-0.1h1.5c0,0,0.1,0,0.1,0.1
							v3.5c0,0.4,0.1,0.8,0.4,1.1c0.3,0.3,0.7,0.4,1.2,0.4c0.2,0,0.3,0,0.5,0c0.2,0,0.3,0,0.4-0.1c0.1,0,0.3-0.1,0.4-0.1v-4.8
							c0,0,0-0.1,0.1-0.1h1.5c0,0,0.1,0,0.1,0.1V342.7z"/>
						<path class="st2" d="M469.6,343.2v-6.1c0-0.1,0-0.1,0.1-0.1c0.3-0.1,0.6-0.2,0.9-0.3c0.3-0.1,0.6-0.1,1-0.2
							c0.3-0.1,0.7-0.1,1.1-0.1c0.5,0,1,0.1,1.4,0.2c0.4,0.2,0.8,0.4,1,0.6c0.3,0.3,0.5,0.6,0.6,0.9c0.1,0.4,0.2,0.8,0.2,1.2v3.8
							c0,0.1,0,0.1-0.1,0.1h-1.4c-0.1,0-0.1-0.1-0.1-0.1v-3.8c0-0.4-0.1-0.8-0.4-1.1c-0.3-0.3-0.7-0.4-1.2-0.4c-0.2,0-0.3,0-0.5,0
							c-0.2,0-0.3,0.1-0.4,0.1c0,0,0,0,0,0c-0.1,0-0.2,0.1-0.3,0.1c0,0-0.1,0.1-0.1,0.1v5c0,0.1-0.1,0.1-0.1,0.1h-1.4
							C469.6,343.3,469.6,343.2,469.6,343.2"/>
						<path class="st2" d="M468.5,339.3c0-0.9-0.3-1.6-0.8-2.1c-0.5-0.5-1.3-0.8-2.3-0.8c-0.4,0-0.7,0-1,0.1
							c-0.3,0.1-0.5,0.2-0.8,0.3c-0.2,0.1-0.4,0.2-0.6,0.3c0,0,0,0,0,0.1l0.6,1.1c0,0,0,0,0.1,0c0.1-0.1,0.3-0.1,0.5-0.2
							c0.2-0.1,0.3-0.1,0.6-0.2c0.2,0,0.4-0.1,0.7-0.1c0.5,0,0.9,0.1,1.1,0.3c0.2,0.2,0.3,0.5,0.3,0.9c-0.1,0-0.3,0-0.4-0.1
							c-0.1,0-0.3,0-0.5,0c-0.2,0-0.4,0-0.6,0c-0.5,0-1,0.1-1.4,0.2c-0.4,0.1-0.7,0.3-1,0.5c-0.3,0.2-0.4,0.4-0.6,0.7
							c-0.1,0.3-0.2,0.6-0.2,0.9c0,0.3,0.1,0.6,0.2,0.9c0.1,0.3,0.3,0.5,0.6,0.7c0.3,0.2,0.6,0.4,1,0.5c0.4,0.1,0.9,0.2,1.4,0.2
							c0.4,0,0.8,0,1.1-0.1c0.3,0,0.6-0.1,0.9-0.1l1-0.9V339.3z M466.9,341.8c-0.1,0-0.3,0.1-0.4,0.1c-0.1,0-0.3,0.1-0.5,0.1
							c-0.2,0-0.4,0-0.5,0c-0.5,0-0.9-0.1-1.1-0.3c-0.2-0.2-0.3-0.4-0.3-0.6c0-0.2,0.1-0.4,0.3-0.6c0.2-0.2,0.6-0.3,1.1-0.3
							c0.2,0,0.4,0,0.5,0c0.2,0,0.3,0,0.5,0c0.2,0,0.3,0,0.4,0.1V341.8z"/>
					</g>
					<g>
						<path class="st9" d="M494.1,348.1c-0.3,0-0.5,0.2-0.5,0.5v1.4c0,0.3,0.2,0.5,0.5,0.5h15.8v-2.4H494.1z"/>
						<rect x="509.8" y="348.1" class="st10" width="5" height="2.4"/>
						<path class="st11" d="M526.1,348.3c-0.1-0.1-0.2-0.2-0.4-0.2h-5.5h-5.4v2.4h5.4h5.5c0.2,0,0.3-0.1,0.4-0.2
							c0.1-0.1,0.1-0.2,0.1-0.3v-1.4C526.2,348.5,526.1,348.3,526.1,348.3z"/>
					</g>
				</g>
				<path class="st2" d="M536.6,398.6H373.9c-3.7,0-6.8-3.1-6.8-6.9v-96c0-3.8,3-6.9,6.8-6.9h162.8c3.7,0,6.8,3.1,6.8,6.9v96
					C543.4,395.5,540.4,398.6,536.6,398.6z M373.9,290.9c-2.6,0-4.7,2.1-4.7,4.8v96c0,2.6,2.1,4.8,4.7,4.8h162.8
					c2.6,0,4.7-2.1,4.7-4.8v-96c0-2.6-2.1-4.8-4.7-4.8H373.9z"/>
			</g>
		</g>
	</g>
</g>
</svg>
